<?xml version="1.0" encoding="UTF-8" standalone="no"?><svg xmlns="http://www.w3.org/2000/svg" xmlns:xlink="http://www.w3.org/1999/xlink" contentScriptType="application/ecmascript" contentStyleType="text/css" height="718px" preserveAspectRatio="none" style="width:1039px;height:718px;" version="1.1" viewBox="0 0 1039 718" width="1039px" zoomAndPan="magnify"><defs><filter height="300%" id="ffkq11llh9fas" width="300%" x="-1" y="-1"><feGaussianBlur result="blurOut" stdDeviation="2.0"/><feColorMatrix in="blurOut" result="blurOut2" type="matrix" values="0 0 0 0 0 0 0 0 0 0 0 0 0 0 0 0 0 0 .4 0"/><feOffset dx="4.0" dy="4.0" in="blurOut2" result="blurOut3"/><feBlend in="SourceGraphic" in2="blurOut3" mode="normal"/></filter></defs><g><!--MD5=[72136138052d025cffdce3c22fbd185f]
class Product--><rect codeLine="13" fill="#FFFFFF" filter="url(#ffkq11llh9fas)" height="192.6719" id="Product" style="stroke:#000000;stroke-width:1.5;" width="256" x="328.5" y="243"/><ellipse cx="426" cy="258" fill="#A9DCDF" rx="10" ry="10" style="stroke:#000000;stroke-width:1.0;"/><path d="M425.7188,254.1406 L424.7656,258.3125 L426.6719,258.3125 L425.7188,254.1406 Z M424.4844,252.2969 L426.9531,252.2969 L429.7031,262.5 L427.6875,262.5 L427.0625,259.9844 L424.3594,259.9844 L423.75,262.5 L421.7188,262.5 L424.4844,252.2969 Z " fill="#000000"/><text fill="#000000" font-family="Segoe UI" font-size="14" font-style="italic" lengthAdjust="spacing" textLength="53" x="445" y="262.8467">Product</text><line style="stroke:#000000;stroke-width:1.5;" x1="329.5" x2="583.5" y1="273" y2="273"/><text fill="#000000" font-family="Segoe UI" font-size="14" lengthAdjust="spacing" textLength="93" x="334.5" y="289.9951">-name: String</text><text fill="#000000" font-family="Segoe UI" font-size="14" lengthAdjust="spacing" textLength="77" x="334.5" y="306.292">-price: float</text><line style="stroke:#000000;stroke-width:1.0;" x1="329.5" x2="583.5" y1="313.5938" y2="313.5938"/><text fill="#000000" font-family="Segoe UI" font-size="14" lengthAdjust="spacing" textLength="244" x="334.5" y="330.5889">+Product(name: String, price: float)</text><text fill="#000000" font-family="Segoe UI" font-size="14" lengthAdjust="spacing" textLength="134" x="334.5" y="346.8857">+getName(): String</text><text fill="#000000" font-family="Segoe UI" font-size="14" lengthAdjust="spacing" textLength="117" x="334.5" y="363.1826">+getPrice(): float</text><text fill="#000000" font-family="Segoe UI" font-size="14" lengthAdjust="spacing" textLength="209" x="334.5" y="379.4795">+setName(name: String): void</text><text fill="#000000" font-family="Segoe UI" font-size="14" lengthAdjust="spacing" textLength="187" x="334.5" y="395.7764">+setPrice(price: float): void</text><text fill="#000000" font-family="Segoe UI" font-size="14" lengthAdjust="spacing" textLength="125" x="334.5" y="412.0732">+toString(): String</text><text fill="#000000" font-family="Segoe UI" font-size="14" lengthAdjust="spacing" textLength="121" x="334.5" y="428.3701">+calcPrice(): float</text><!--MD5=[5a706566d5b182a0ccdbef93059a0eb6]
class PhysicalProd--><rect codeLine="26" fill="#FFFFFF" filter="url(#ffkq11llh9fas)" height="143.7813" id="PhysicalProd" style="stroke:#000000;stroke-width:1.5;" width="413" x="7" y="536.5"/><ellipse cx="166" cy="551.5" fill="#ADD1B2" rx="10" ry="10" style="stroke:#000000;stroke-width:1.0;"/><path d="M168.3906,556.2031 Q167.9063,556.4531 167.375,556.5781 Q166.8594,556.7031 166.2813,556.7031 Q164.2188,556.7031 163.125,555.3438 Q162.0469,553.9844 162.0469,551.4063 Q162.0469,548.8281 163.125,547.4688 Q164.2188,546.1094 166.2813,546.1094 Q166.8594,546.1094 167.3906,546.2344 Q167.9219,546.3594 168.3906,546.5938 L168.3906,548.8438 Q167.875,548.3594 167.375,548.1406 Q166.8906,547.9219 166.375,547.9219 Q165.2656,547.9219 164.7031,548.7969 Q164.1406,549.6719 164.1406,551.4063 Q164.1406,553.125 164.7031,554.0156 Q165.2656,554.8906 166.375,554.8906 Q166.8906,554.8906 167.375,554.6719 Q167.875,554.4375 168.3906,553.9688 L168.3906,556.2031 Z " fill="#000000"/><text fill="#000000" font-family="Segoe UI" font-size="14" lengthAdjust="spacing" textLength="87" x="185" y="556.3467">PhysicalProd</text><line style="stroke:#000000;stroke-width:1.5;" x1="8" x2="419" y1="566.5" y2="566.5"/><text fill="#000000" font-family="Segoe UI" font-size="14" lengthAdjust="spacing" textLength="121" x="13" y="583.4951">-deliveryFee: float</text><line style="stroke:#000000;stroke-width:1.0;" x1="8" x2="419" y1="590.7969" y2="590.7969"/><text fill="#000000" font-family="Segoe UI" font-size="14" lengthAdjust="spacing" textLength="401" x="13" y="607.792">+PhysicalProd(name: String, price: float, deliveryFee: float)</text><text fill="#000000" font-family="Segoe UI" font-size="14" lengthAdjust="spacing" textLength="163" x="13" y="624.0889">+getDeliveryFee(): float</text><text fill="#000000" font-family="Segoe UI" font-size="14" lengthAdjust="spacing" textLength="277" x="13" y="640.3857">+setDeliveryFee(deliveryFee: float): void</text><text fill="#000000" font-family="Segoe UI" font-size="14" lengthAdjust="spacing" textLength="125" x="13" y="656.6826">+toString(): String</text><text fill="#000000" font-family="Segoe UI" font-size="14" lengthAdjust="spacing" textLength="121" x="13" y="672.9795">+calcPrice(): float</text><!--MD5=[84e72f1e9ac98b7f32a38d234d96fa90]
class DigitalProd--><rect codeLine="36" fill="#FFFFFF" filter="url(#ffkq11llh9fas)" height="192.6719" id="DigitalProd" style="stroke:#000000;stroke-width:1.5;" width="489" x="455" y="512"/><ellipse cx="658.5" cy="527" fill="#ADD1B2" rx="10" ry="10" style="stroke:#000000;stroke-width:1.0;"/><path d="M660.8906,531.7031 Q660.4063,531.9531 659.875,532.0781 Q659.3594,532.2031 658.7813,532.2031 Q656.7188,532.2031 655.625,530.8438 Q654.5469,529.4844 654.5469,526.9063 Q654.5469,524.3281 655.625,522.9688 Q656.7188,521.6094 658.7813,521.6094 Q659.3594,521.6094 659.8906,521.7344 Q660.4219,521.8594 660.8906,522.0938 L660.8906,524.3438 Q660.375,523.8594 659.875,523.6406 Q659.3906,523.4219 658.875,523.4219 Q657.7656,523.4219 657.2031,524.2969 Q656.6406,525.1719 656.6406,526.9063 Q656.6406,528.625 657.2031,529.5156 Q657.7656,530.3906 658.875,530.3906 Q659.3906,530.3906 659.875,530.1719 Q660.375,529.9375 660.8906,529.4688 L660.8906,531.7031 Z " fill="#000000"/><text fill="#000000" font-family="Segoe UI" font-size="14" lengthAdjust="spacing" textLength="74" x="677.5" y="531.8467">DigitalProd</text><line style="stroke:#000000;stroke-width:1.5;" x1="456" x2="943" y1="542" y2="542"/><text fill="#000000" font-family="Segoe UI" font-size="14" lengthAdjust="spacing" textLength="103" x="461" y="558.9951">-license: String</text><text fill="#000000" font-family="Segoe UI" font-size="14" lengthAdjust="spacing" textLength="104" x="461" y="575.292">-sizeInMb: float</text><line style="stroke:#000000;stroke-width:1.0;" x1="456" x2="943" y1="582.5938" y2="582.5938"/><text fill="#000000" font-family="Segoe UI" font-size="14" lengthAdjust="spacing" textLength="477" x="461" y="599.5889">+DigitalProd(name: String, price: float, license: String, sizeInMb: float)</text><text fill="#000000" font-family="Segoe UI" font-size="14" lengthAdjust="spacing" textLength="147" x="461" y="615.8857">+getLicense(): String</text><text fill="#000000" font-family="Segoe UI" font-size="14" lengthAdjust="spacing" textLength="145" x="461" y="632.1826">+getSizeInMb(): float</text><text fill="#000000" font-family="Segoe UI" font-size="14" lengthAdjust="spacing" textLength="232" x="461" y="648.4795">+setLicense(license: String): void</text><text fill="#000000" font-family="Segoe UI" font-size="14" lengthAdjust="spacing" textLength="242" x="461" y="664.7764">+setSizeInMb(sizeInMb: float): void</text><text fill="#000000" font-family="Segoe UI" font-size="14" lengthAdjust="spacing" textLength="125" x="461" y="681.0732">+toString(): String</text><text fill="#000000" font-family="Segoe UI" font-size="14" lengthAdjust="spacing" textLength="121" x="461" y="697.3701">+calcPrice(): float</text><!--MD5=[ed6624c6556d5e7b1bd23032162d20b7]
class Client--><rect codeLine="49" fill="#FFFFFF" filter="url(#ffkq11llh9fas)" height="225.2656" id="Client" style="stroke:#000000;stroke-width:1.5;" width="358" x="619.5" y="227"/><ellipse cx="775" cy="242" fill="#ADD1B2" rx="10" ry="10" style="stroke:#000000;stroke-width:1.0;"/><path d="M777.3906,246.7031 Q776.9063,246.9531 776.375,247.0781 Q775.8594,247.2031 775.2813,247.2031 Q773.2188,247.2031 772.125,245.8438 Q771.0469,244.4844 771.0469,241.9063 Q771.0469,239.3281 772.125,237.9688 Q773.2188,236.6094 775.2813,236.6094 Q775.8594,236.6094 776.3906,236.7344 Q776.9219,236.8594 777.3906,237.0938 L777.3906,239.3438 Q776.875,238.8594 776.375,238.6406 Q775.8906,238.4219 775.375,238.4219 Q774.2656,238.4219 773.7031,239.2969 Q773.1406,240.1719 773.1406,241.9063 Q773.1406,243.625 773.7031,244.5156 Q774.2656,245.3906 775.375,245.3906 Q775.8906,245.3906 776.375,245.1719 Q776.875,244.9375 777.3906,244.4688 L777.3906,246.7031 Z " fill="#000000"/><text fill="#000000" font-family="Segoe UI" font-size="14" lengthAdjust="spacing" textLength="39" x="794" y="246.8467">Client</text><line style="stroke:#000000;stroke-width:1.5;" x1="620.5" x2="976.5" y1="257" y2="257"/><text fill="#000000" font-family="Segoe UI" font-size="14" lengthAdjust="spacing" textLength="93" x="625.5" y="273.9951">-name: String</text><text fill="#000000" font-family="Segoe UI" font-size="14" lengthAdjust="spacing" textLength="81" x="625.5" y="290.292">-mail: String</text><text fill="#000000" font-family="Segoe UI" font-size="14" lengthAdjust="spacing" textLength="110" x="625.5" y="306.5889">-address: String</text><line style="stroke:#000000;stroke-width:1.0;" x1="620.5" x2="976.5" y1="313.8906" y2="313.8906"/><text fill="#000000" font-family="Segoe UI" font-size="14" lengthAdjust="spacing" textLength="346" x="625.5" y="330.8857">+Client(name: String, mail: String, address: String)</text><text fill="#000000" font-family="Segoe UI" font-size="14" lengthAdjust="spacing" textLength="134" x="625.5" y="347.1826">+getName(): String</text><text fill="#000000" font-family="Segoe UI" font-size="14" lengthAdjust="spacing" textLength="120" x="625.5" y="363.4795">+getMail(): String</text><text fill="#000000" font-family="Segoe UI" font-size="14" lengthAdjust="spacing" textLength="151" x="625.5" y="379.7764">+getAddress(): String</text><text fill="#000000" font-family="Segoe UI" font-size="14" lengthAdjust="spacing" textLength="209" x="625.5" y="396.0732">+setName(name: String): void</text><text fill="#000000" font-family="Segoe UI" font-size="14" lengthAdjust="spacing" textLength="183" x="625.5" y="412.3701">+setMail(mail: String): void</text><text fill="#000000" font-family="Segoe UI" font-size="14" lengthAdjust="spacing" textLength="243" x="625.5" y="428.667">+setAddress(address: String): void</text><text fill="#000000" font-family="Segoe UI" font-size="14" lengthAdjust="spacing" textLength="125" x="625.5" y="444.9639">+toString(): String</text><!--MD5=[cf4d6237fcae255cd2e1656cf84a30e2]
class Order--><rect codeLine="64" fill="#FFFFFF" filter="url(#ffkq11llh9fas)" height="160.0781" id="Order" style="stroke:#000000;stroke-width:1.5;" width="338" x="458.5" y="7"/><ellipse cx="604" cy="22" fill="#ADD1B2" rx="10" ry="10" style="stroke:#000000;stroke-width:1.0;"/><path d="M606.3906,26.7031 Q605.9063,26.9531 605.375,27.0781 Q604.8594,27.2031 604.2813,27.2031 Q602.2188,27.2031 601.125,25.8438 Q600.0469,24.4844 600.0469,21.9063 Q600.0469,19.3281 601.125,17.9688 Q602.2188,16.6094 604.2813,16.6094 Q604.8594,16.6094 605.3906,16.7344 Q605.9219,16.8594 606.3906,17.0938 L606.3906,19.3438 Q605.875,18.8594 605.375,18.6406 Q604.8906,18.4219 604.375,18.4219 Q603.2656,18.4219 602.7031,19.2969 Q602.1406,20.1719 602.1406,21.9063 Q602.1406,23.625 602.7031,24.5156 Q603.2656,25.3906 604.375,25.3906 Q604.8906,25.3906 605.375,25.1719 Q605.875,24.9375 606.3906,24.4688 L606.3906,26.7031 Z " fill="#000000"/><text fill="#000000" font-family="Segoe UI" font-size="14" lengthAdjust="spacing" textLength="39" x="623" y="26.8467">Order</text><line style="stroke:#000000;stroke-width:1.5;" x1="459.5" x2="795.5" y1="37" y2="37"/><text fill="#000000" font-family="Segoe UI" font-size="14" lengthAdjust="spacing" textLength="90" x="464.5" y="53.9951">-client: Client</text><text fill="#000000" font-family="Segoe UI" font-size="14" lengthAdjust="spacing" textLength="177" x="464.5" y="70.292">-products: List&lt;Product&gt;</text><line style="stroke:#000000;stroke-width:1.0;" x1="459.5" x2="795.5" y1="77.5938" y2="77.5938"/><text fill="#000000" font-family="Segoe UI" font-size="14" lengthAdjust="spacing" textLength="146" x="464.5" y="94.5889">+Order(client: Client)</text><text fill="#000000" font-family="Segoe UI" font-size="14" lengthAdjust="spacing" textLength="326" x="464.5" y="110.8857">+Order(client: Client, products: List&lt;Product&gt;)</text><text fill="#000000" font-family="Segoe UI" font-size="14" lengthAdjust="spacing" textLength="301" x="464.5" y="127.1826">+addProduct(productToAdd: Product): void</text><text fill="#000000" font-family="Segoe UI" font-size="14" lengthAdjust="spacing" textLength="121" x="464.5" y="143.4795">+calcTotal(): float</text><text fill="#000000" font-family="Segoe UI" font-size="14" lengthAdjust="spacing" textLength="172" x="464.5" y="159.7764">+showSummary(): String</text><!--MD5=[84718776d214be480e4c259efcb737fc]
class Main--><rect codeLine="75" fill="#FFFFFF" filter="url(#ffkq11llh9fas)" height="62.2969" id="Main" style="stroke:#000000;stroke-width:1.5;" width="193" x="832" y="56"/><ellipse cx="908.5" cy="71" fill="#ADD1B2" rx="10" ry="10" style="stroke:#000000;stroke-width:1.0;"/><path d="M910.8906,75.7031 Q910.4063,75.9531 909.875,76.0781 Q909.3594,76.2031 908.7813,76.2031 Q906.7188,76.2031 905.625,74.8438 Q904.5469,73.4844 904.5469,70.9063 Q904.5469,68.3281 905.625,66.9688 Q906.7188,65.6094 908.7813,65.6094 Q909.3594,65.6094 909.8906,65.7344 Q910.4219,65.8594 910.8906,66.0938 L910.8906,68.3438 Q910.375,67.8594 909.875,67.6406 Q909.3906,67.4219 908.875,67.4219 Q907.7656,67.4219 907.2031,68.2969 Q906.6406,69.1719 906.6406,70.9063 Q906.6406,72.625 907.2031,73.5156 Q907.7656,74.3906 908.875,74.3906 Q909.3906,74.3906 909.875,74.1719 Q910.375,73.9375 910.8906,73.4688 L910.8906,75.7031 Z " fill="#000000"/><text fill="#000000" font-family="Segoe UI" font-size="14" lengthAdjust="spacing" textLength="32" x="927.5" y="75.8467">Main</text><line style="stroke:#000000;stroke-width:1.5;" x1="833" x2="1024" y1="86" y2="86"/><line style="stroke:#000000;stroke-width:1.5;" x1="833" x2="1024" y1="94" y2="94"/><text fill="#000000" font-family="Segoe UI" font-size="14" lengthAdjust="spacing" text-decoration="underline" textLength="181" x="838" y="110.9951">+main(args: String[]): void</text><!--MD5=[c7719db21702596c14f08ba5d6c34c2d]
reverse link Product to PhysicalProd--><path codeLine="79" d="M355.88,451.06 C329.63,479.9 302.04,510.22 278.2,536.41 " fill="none" id="Product-backto-PhysicalProd" style="stroke:#000000;stroke-width:1.0;"/><polygon fill="none" points="350.82,446.22,369.46,436.14,361.17,455.64,350.82,446.22" style="stroke:#000000;stroke-width:1.0;"/><!--MD5=[7a445c677fd16bf1c9ae91c4f6b4f3b4]
reverse link Product to DigitalProd--><path codeLine="80" d="M557.07,451 C575.38,471.12 594.36,491.97 612.25,511.63 " fill="none" id="Product-backto-DigitalProd" style="stroke:#000000;stroke-width:1.0;"/><polygon fill="none" points="551.83,455.64,543.54,436.14,562.18,446.22,551.83,455.64" style="stroke:#000000;stroke-width:1.0;"/><!--MD5=[b4eabd1a63a4ad1f2f93b60573323bf1]
link Order to Client--><path codeLine="81" d="M681.61,167.26 C694.52,186.18 708.55,206.73 722.25,226.8 " fill="none" id="Order-Client" style="stroke:#000000;stroke-width:1.0;"/><!--MD5=[e9f19b7cb7fceb8a230391eb3c9865e3]
reverse link Order to Product--><path codeLine="82" d="M566.01,178.08 C551.7,199.04 536.41,221.43 521.94,242.63 " fill="none" id="Order-backto-Product" style="stroke:#000000;stroke-width:1.0;"/><polygon fill="#FFFFFF" points="573.39,167.26,566.7027,169.9582,566.6214,177.1689,573.3086,174.4706,573.39,167.26" style="stroke:#000000;stroke-width:1.0;"/><!--MD5=[062dcaab214e38a75e59c9484c1daf6f]
@startuml ProyectoPedidos
' - - - STYLE START - - -
skinparam backgroundColor white
skinparam class {
    BackgroundColor White
    ArrowColor Black
    BorderColor Black
    AttributeIconSize 0
}
skinparam defaultFontName "Segoe UI"
skinparam defaultFontSize 14
' - - - STYLE END - - -

abstract class Product {
  -name: String
  -price: float
  - -
  +Product(name: String, price: float)
  +getName(): String
  +getPrice(): float
  +setName(name: String): void
  +setPrice(price: float): void
  +toString(): String
  +calcPrice(): float
}

class PhysicalProd {
  -deliveryFee: float
  - -
  +PhysicalProd(name: String, price: float, deliveryFee: float)
  +getDeliveryFee(): float
  +setDeliveryFee(deliveryFee: float): void
  +toString(): String
  +calcPrice(): float
}

class DigitalProd {
  -license: String
  -sizeInMb: float
  - -
  +DigitalProd(name: String, price: float, license: String, sizeInMb: float)
  +getLicense(): String
  +getSizeInMb(): float
  +setLicense(license: String): void
  +setSizeInMb(sizeInMb: float): void
  +toString(): String
  +calcPrice(): float
}

class Client {
  -name: String
  -mail: String
  -address: String
  - -
  +Client(name: String, mail: String, address: String)
  +getName(): String
  +getMail(): String
  +getAddress(): String
  +setName(name: String): void
  +setMail(mail: String): void
  +setAddress(address: String): void
  +toString(): String
}

class Order {
  -client: Client
  -products: List<Product>
  - -
  +Order(client: Client)
  +Order(client: Client, products: List<Product>)
  +addProduct(productToAdd: Product): void
  +calcTotal(): float
  +showSummary(): String
}

class Main {
  +{static} main(args: String[]): void
}

Product <|- - PhysicalProd
Product <|- - DigitalProd
Order - - Client
Order o- - Product

@enduml

@startuml ProyectoPedidos
skinparam backgroundColor white
skinparam class {
    BackgroundColor White
    ArrowColor Black
    BorderColor Black
    AttributeIconSize 0
}
skinparam defaultFontName "Segoe UI"
skinparam defaultFontSize 14

abstract class Product {
  -name: String
  -price: float
  - -
  +Product(name: String, price: float)
  +getName(): String
  +getPrice(): float
  +setName(name: String): void
  +setPrice(price: float): void
  +toString(): String
  +calcPrice(): float
}

class PhysicalProd {
  -deliveryFee: float
  - -
  +PhysicalProd(name: String, price: float, deliveryFee: float)
  +getDeliveryFee(): float
  +setDeliveryFee(deliveryFee: float): void
  +toString(): String
  +calcPrice(): float
}

class DigitalProd {
  -license: String
  -sizeInMb: float
  - -
  +DigitalProd(name: String, price: float, license: String, sizeInMb: float)
  +getLicense(): String
  +getSizeInMb(): float
  +setLicense(license: String): void
  +setSizeInMb(sizeInMb: float): void
  +toString(): String
  +calcPrice(): float
}

class Client {
  -name: String
  -mail: String
  -address: String
  - -
  +Client(name: String, mail: String, address: String)
  +getName(): String
  +getMail(): String
  +getAddress(): String
  +setName(name: String): void
  +setMail(mail: String): void
  +setAddress(address: String): void
  +toString(): String
}

class Order {
  -client: Client
  -products: List<Product>
  - -
  +Order(client: Client)
  +Order(client: Client, products: List<Product>)
  +addProduct(productToAdd: Product): void
  +calcTotal(): float
  +showSummary(): String
}

class Main {
  +{static} main(args: String[]): void
}

Product <|- - PhysicalProd
Product <|- - DigitalProd
Order - - Client
Order o- - Product

@enduml

PlantUML version 1.2021.00(Sun Jan 10 11:25:05 CET 2021)
(MIT source distribution)
Java Runtime: Java(TM) SE Runtime Environment
JVM: Java HotSpot(TM) 64-Bit Server VM
Default Encoding: UTF-8
Language: en
Country: US
--></g></svg>