<?xml version="1.0" encoding="us-ascii" standalone="no"?><svg xmlns="http://www.w3.org/2000/svg" xmlns:xlink="http://www.w3.org/1999/xlink" contentStyleType="text/css" height="1088px" preserveAspectRatio="none" style="width:1854px;height:1088px;background:#FFFFFF;" version="1.1" viewBox="0 0 1854 1088" width="1854px" zoomAndPan="magnify"><defs/><g><!--class Persona--><g id="elem_Persona"><rect codeLine="4" fill="#F1F1F1" height="140.0781" id="Persona" rx="2.5" ry="2.5" style="stroke:#181818;stroke-width:0.5;" width="579" x="1128" y="774"/><text fill="#000000" font-family="sans-serif" font-size="14" font-style="italic" lengthAdjust="spacing" textLength="55" x="1390" y="791.9951">Persona</text><line style="stroke:#181818;stroke-width:0.5;" x1="1129" x2="1706" y1="800.2969" y2="800.2969"/><text fill="#000000" font-family="sans-serif" font-size="14" lengthAdjust="spacing" textLength="75" x="1134" y="817.292">-dni: String</text><text fill="#000000" font-family="sans-serif" font-size="14" lengthAdjust="spacing" textLength="108" x="1134" y="833.5889">-nombre: String</text><text fill="#000000" font-family="sans-serif" font-size="14" lengthAdjust="spacing" textLength="162" x="1134" y="849.8857">-fechaNacimiento: Date</text><text fill="#000000" font-family="sans-serif" font-size="14" lengthAdjust="spacing" textLength="139" x="1134" y="866.1826">-domicilio: Direccion</text><line style="stroke:#181818;stroke-width:1.0;" x1="1129" x2="1706" y1="873.4844" y2="873.4844"/><text fill="#000000" font-family="sans-serif" font-size="14" lengthAdjust="spacing" textLength="567" x="1134" y="890.4795">+Persona(dni: String, nombre: String, fechaNacimiento: Date, domicilio: Direccion)</text><text fill="#000000" font-family="sans-serif" font-size="14" lengthAdjust="spacing" textLength="106" x="1134" y="906.7764">+getEdad(): int</text></g><!--class Universidad--><g id="elem_Universidad"><rect codeLine="14" fill="#F1F1F1" height="107.4844" id="Universidad" rx="2.5" ry="2.5" style="stroke:#181818;stroke-width:0.5;" width="342" x="790.5" y="7"/><text fill="#000000" font-family="sans-serif" font-size="14" lengthAdjust="spacing" textLength="80" x="921.5" y="24.9951">Universidad</text><line style="stroke:#181818;stroke-width:0.5;" x1="791.5" x2="1131.5" y1="33.2969" y2="33.2969"/><text fill="#000000" font-family="sans-serif" font-size="14" lengthAdjust="spacing" textLength="108" x="796.5" y="50.292">-nombre: String</text><text fill="#000000" font-family="sans-serif" font-size="14" lengthAdjust="spacing" textLength="267" x="796.5" y="66.5889">-departamentos: List&lt;Departamento&gt;</text><line style="stroke:#181818;stroke-width:1.0;" x1="791.5" x2="1131.5" y1="73.8906" y2="73.8906"/><text fill="#000000" font-family="sans-serif" font-size="14" lengthAdjust="spacing" textLength="205" x="796.5" y="90.8857">+Universidad(nombre: String)</text><text fill="#000000" font-family="sans-serif" font-size="14" lengthAdjust="spacing" textLength="330" x="796.5" y="107.1826">+agregarDepartamento(d: Departamento): void</text></g><!--class Direccion--><g id="elem_Direccion"><rect codeLine="22" fill="#F1F1F1" height="107.4844" id="Direccion" rx="2.5" ry="2.5" style="stroke:#181818;stroke-width:0.5;" width="370" x="1232.5" y="974"/><text fill="#000000" font-family="sans-serif" font-size="14" lengthAdjust="spacing" textLength="65" x="1385" y="991.9951">Direccion</text><line style="stroke:#181818;stroke-width:0.5;" x1="1233.5" x2="1601.5" y1="1000.2969" y2="1000.2969"/><text fill="#000000" font-family="sans-serif" font-size="14" lengthAdjust="spacing" textLength="85" x="1238.5" y="1017.292">-calle: String</text><text fill="#000000" font-family="sans-serif" font-size="14" lengthAdjust="spacing" textLength="85" x="1238.5" y="1033.5889">-numero: int</text><text fill="#000000" font-family="sans-serif" font-size="14" lengthAdjust="spacing" textLength="100" x="1238.5" y="1049.8857">-ciudad: String</text><line style="stroke:#181818;stroke-width:1.0;" x1="1233.5" x2="1601.5" y1="1057.1875" y2="1057.1875"/><text fill="#000000" font-family="sans-serif" font-size="14" lengthAdjust="spacing" textLength="358" x="1238.5" y="1074.1826">+Direccion(calle: String, numero: int, ciudad: String)</text></g><!--class Curso--><g id="elem_Curso"><rect codeLine="30" fill="#F1F1F1" height="172.6719" id="Curso" rx="2.5" ry="2.5" style="stroke:#181818;stroke-width:0.5;" width="536" x="784.5" y="341"/><text fill="#000000" font-family="sans-serif" font-size="14" lengthAdjust="spacing" textLength="41" x="1032" y="358.9951">Curso</text><line style="stroke:#181818;stroke-width:0.5;" x1="785.5" x2="1319.5" y1="367.2969" y2="367.2969"/><text fill="#000000" font-family="sans-serif" font-size="14" lengthAdjust="spacing" textLength="101" x="790.5" y="384.292">-codigo: String</text><text fill="#000000" font-family="sans-serif" font-size="14" lengthAdjust="spacing" textLength="108" x="790.5" y="400.5889">-nombre: String</text><text fill="#000000" font-family="sans-serif" font-size="14" lengthAdjust="spacing" textLength="118" x="790.5" y="416.8857">-cupoMaximo: int</text><text fill="#000000" font-family="sans-serif" font-size="14" lengthAdjust="spacing" textLength="166" x="790.5" y="433.1826">-horarios: List&lt;Horario&gt;</text><text fill="#000000" font-family="sans-serif" font-size="14" lengthAdjust="spacing" textLength="213" x="790.5" y="449.4795">-inscripciones: List&lt;Matricula&gt;</text><line style="stroke:#181818;stroke-width:1.0;" x1="785.5" x2="1319.5" y1="456.7813" y2="456.7813"/><text fill="#000000" font-family="sans-serif" font-size="14" lengthAdjust="spacing" textLength="524" x="790.5" y="473.7764">+Curso(codigo: String, nombre: String, cupoMaximo: int, profesor: Profesor)</text><text fill="#000000" font-family="sans-serif" font-size="14" lengthAdjust="spacing" textLength="228" x="790.5" y="490.0732">+agregarHorario(h: Horario): void</text><text fill="#000000" font-family="sans-serif" font-size="14" lengthAdjust="spacing" textLength="254" x="790.5" y="506.3701">+inscribirse(e: Estudiante): Matricula</text></g><!--class Departamento--><g id="elem_Departamento"><rect codeLine="42" fill="#F1F1F1" height="107.4844" id="Departamento" rx="2.5" ry="2.5" style="stroke:#181818;stroke-width:0.5;" width="237" x="843" y="174"/><text fill="#000000" font-family="sans-serif" font-size="14" lengthAdjust="spacing" textLength="100" x="911.5" y="191.9951">Departamento</text><line style="stroke:#181818;stroke-width:0.5;" x1="844" x2="1079" y1="200.2969" y2="200.2969"/><text fill="#000000" font-family="sans-serif" font-size="14" lengthAdjust="spacing" textLength="108" x="849" y="217.292">-nombre: String</text><text fill="#000000" font-family="sans-serif" font-size="14" lengthAdjust="spacing" textLength="149" x="849" y="233.5889">-cursos: List&lt;Curso&gt;</text><line style="stroke:#181818;stroke-width:1.0;" x1="844" x2="1079" y1="240.8906" y2="240.8906"/><text fill="#000000" font-family="sans-serif" font-size="14" lengthAdjust="spacing" textLength="225" x="849" y="257.8857">+Departamento(nombre: String)</text><text fill="#000000" font-family="sans-serif" font-size="14" lengthAdjust="spacing" textLength="211" x="849" y="274.1826">+agregarCurso(c: Curso): void</text></g><!--class Estudiante--><g id="elem_Estudiante"><rect codeLine="50" fill="#F1F1F1" height="107.4844" id="Estudiante" rx="2.5" ry="2.5" style="stroke:#181818;stroke-width:0.5;" width="732" x="1115.5" y="174"/><text fill="#000000" font-family="sans-serif" font-size="14" lengthAdjust="spacing" textLength="74" x="1444.5" y="191.9951">Estudiante</text><line style="stroke:#181818;stroke-width:0.5;" x1="1116.5" x2="1846.5" y1="200.2969" y2="200.2969"/><text fill="#000000" font-family="sans-serif" font-size="14" lengthAdjust="spacing" textLength="133" x="1121.5" y="217.292">-repetidor: boolean</text><text fill="#000000" font-family="sans-serif" font-size="14" lengthAdjust="spacing" textLength="192" x="1121.5" y="233.5889">-matriculas: List&lt;Matricula&gt;</text><line style="stroke:#181818;stroke-width:1.0;" x1="1116.5" x2="1846.5" y1="240.8906" y2="240.8906"/><text fill="#000000" font-family="sans-serif" font-size="14" lengthAdjust="spacing" textLength="720" x="1121.5" y="257.8857">+Estudiante(dni: String, nombre: String, fechaNacimiento: Date, domicilio: Direccion, repetidor: boolean)</text><text fill="#000000" font-family="sans-serif" font-size="14" lengthAdjust="spacing" textLength="220" x="1121.5" y="274.1826">+inscribirse(c: Curso): Matricula</text></g><!--class Matricula--><g id="elem_Matricula"><rect codeLine="58" fill="#F1F1F1" height="140.0781" id="Matricula" rx="2.5" ry="2.5" style="stroke:#181818;stroke-width:0.5;" width="437" x="1263" y="574"/><text fill="#000000" font-family="sans-serif" font-size="14" lengthAdjust="spacing" textLength="61" x="1451" y="591.9951">Matricula</text><line style="stroke:#181818;stroke-width:0.5;" x1="1264" x2="1699" y1="600.2969" y2="600.2969"/><text fill="#000000" font-family="sans-serif" font-size="14" lengthAdjust="spacing" textLength="85" x="1269" y="617.292">-fecha: Date</text><text fill="#000000" font-family="sans-serif" font-size="14" lengthAdjust="spacing" textLength="124" x="1269" y="633.5889">-notaFinal: double</text><text fill="#000000" font-family="sans-serif" font-size="14" lengthAdjust="spacing" textLength="94" x="1269" y="649.8857">-curso: Curso</text><text fill="#000000" font-family="sans-serif" font-size="14" lengthAdjust="spacing" textLength="162" x="1269" y="666.1826">-estudiante: Estudiante</text><line style="stroke:#181818;stroke-width:1.0;" x1="1264" x2="1699" y1="673.4844" y2="673.4844"/><text fill="#000000" font-family="sans-serif" font-size="14" lengthAdjust="spacing" textLength="425" x="1269" y="690.4795">+Matricula(fecha: Date, curso: Curso, estudiante: Estudiante)</text><text fill="#000000" font-family="sans-serif" font-size="14" lengthAdjust="spacing" textLength="194" x="1269" y="706.7764">+calcularNotaFinal(): double</text></g><!--class Horario--><g id="elem_Horario"><rect codeLine="68" fill="#F1F1F1" height="107.4844" id="Horario" rx="2.5" ry="2.5" style="stroke:#181818;stroke-width:0.5;" width="497" x="7" y="590.5"/><text fill="#000000" font-family="sans-serif" font-size="14" lengthAdjust="spacing" textLength="49" x="231" y="608.4951">Horario</text><line style="stroke:#181818;stroke-width:0.5;" x1="8" x2="503" y1="616.7969" y2="616.7969"/><text fill="#000000" font-family="sans-serif" font-size="14" lengthAdjust="spacing" textLength="130" x="13" y="633.792">-diaSemana: String</text><text fill="#000000" font-family="sans-serif" font-size="14" lengthAdjust="spacing" textLength="149" x="13" y="650.0889">-horaInicio: LocalTime</text><text fill="#000000" font-family="sans-serif" font-size="14" lengthAdjust="spacing" textLength="134" x="13" y="666.3857">-horaFin: LocalTime</text><line style="stroke:#181818;stroke-width:1.0;" x1="8" x2="503" y1="673.6875" y2="673.6875"/><text fill="#000000" font-family="sans-serif" font-size="14" lengthAdjust="spacing" textLength="485" x="13" y="690.6826">+Horario(diaSemana: String, horaInicio: LocalTime, horaFin: LocalTime)</text></g><!--class Profesor--><g id="elem_Profesor"><rect codeLine="76" fill="#F1F1F1" height="107.4844" id="Profesor" rx="2.5" ry="2.5" style="stroke:#181818;stroke-width:0.5;" width="689" x="539" y="590.5"/><text fill="#000000" font-family="sans-serif" font-size="14" lengthAdjust="spacing" textLength="58" x="854.5" y="608.4951">Profesor</text><line style="stroke:#181818;stroke-width:0.5;" x1="540" x2="1227" y1="616.7969" y2="616.7969"/><text fill="#000000" font-family="sans-serif" font-size="14" lengthAdjust="spacing" textLength="106" x="545" y="633.792">-salario: double</text><text fill="#000000" font-family="sans-serif" font-size="14" lengthAdjust="spacing" textLength="210" x="545" y="650.0889">-cursosDictados: List&lt;Curso&gt;</text><line style="stroke:#181818;stroke-width:1.0;" x1="540" x2="1227" y1="657.3906" y2="657.3906"/><text fill="#000000" font-family="sans-serif" font-size="14" lengthAdjust="spacing" textLength="677" x="545" y="674.3857">+Profesor(dni: String, nombre: String, fechaNacimiento: Date, domicilio: Direccion, salario: double)</text><text fill="#000000" font-family="sans-serif" font-size="14" lengthAdjust="spacing" textLength="208" x="545" y="690.6826">+asignarCurso(c: Curso): void</text></g><!--reverse link Persona to Direccion--><g id="link_Persona_Direccion"><path codeLine="84" d="M1417.5,926.14 C1417.5,945.97 1417.5,955.27 1417.5,973.93 " fill="none" id="Persona-backto-Direccion" style="stroke:#181818;stroke-width:1.0;"/><polygon fill="#181818" points="1417.5,914.14,1413.5,920.14,1417.5,926.14,1421.5,920.14,1417.5,914.14" style="stroke:#181818;stroke-width:1.0;"/></g><!--reverse link Universidad to Departamento--><g id="link_Universidad_Departamento"><path codeLine="85" d="M961.5,126.16 C961.5,145.21 961.5,154.72 961.5,173.77 " fill="none" id="Universidad-backto-Departamento" style="stroke:#181818;stroke-width:1.0;"/><polygon fill="none" points="961.5,114.16,957.5,120.16,961.5,126.16,965.5,120.16,961.5,114.16" style="stroke:#181818;stroke-width:1.0;"/></g><!--reverse link Curso to Horario--><g id="link_Curso_Horario"><path codeLine="86" d="M772.7522,503.7883 C663.4622,533.1983 551.07,563.45 450.63,590.48 " fill="none" id="Curso-backto-Horario" style="stroke:#181818;stroke-width:1.0;"/><polygon fill="none" points="784.34,500.67,777.5067,498.3665,772.7522,503.7883,779.5855,506.0917,784.34,500.67" style="stroke:#181818;stroke-width:1.0;"/></g><!--reverse link Curso to Matricula--><g id="link_Curso_Matricula"><path codeLine="87" d="M1221.7902,519.4622 C1261.1702,539.3622 1292.53,554.9 1331.49,573.99 " fill="none" id="Curso-backto-Matricula" style="stroke:#181818;stroke-width:1.0;"/><polygon fill="none" points="1211.08,514.05,1214.631,520.3262,1221.7902,519.4622,1218.2392,513.186,1211.08,514.05" style="stroke:#181818;stroke-width:1.0;"/></g><!--reverse link Matricula to Curso--><g id="link_Matricula_Curso"><path codeLine="95" d="M1345.5048,568.5287 C1308.1548,549.4387 1277.12,533.95 1236.84,514.05 " fill="none" id="Matricula-backto-Curso" style="stroke:#181818;stroke-width:1.0;"/><polygon fill="#181818" points="1356.19,573.99,1352.6678,567.6976,1345.5048,568.5287,1349.0269,574.8211,1356.19,573.99" style="stroke:#181818;stroke-width:1.0;"/></g><!--link Curso to Estudiante--><g id="link_Curso_Estudiante"><path codeLine="88" d="M1251.22,340.96 C1295.72,320.58 1335.6926,302.009 1374.3226,283.619 " fill="none" id="Curso-to-Estudiante" style="stroke:#181818;stroke-width:1.0;stroke-dasharray:7.0,7.0;"/><polygon fill="#181818" points="1379.74,281.04,1369.8945,281.2969,1375.2255,283.1892,1373.3332,288.5201,1379.74,281.04" style="stroke:#181818;stroke-width:1.0;"/></g><!--link Estudiante to Curso--><g id="link_Estudiante_Curso"><path codeLine="93" d="M1356.25,281.04 C1315.27,299.43 1274.4606,318.0502 1230.6306,338.4302 " fill="none" id="Estudiante-to-Curso" style="stroke:#181818;stroke-width:1.0;stroke-dasharray:7.0,7.0;"/><polygon fill="#181818" points="1225.19,340.96,1235.0374,340.7924,1229.7238,338.8519,1231.6644,333.5383,1225.19,340.96" style="stroke:#181818;stroke-width:1.0;"/></g><!--link Curso to Profesor--><g id="link_Curso_Profesor"><path codeLine="89" d="M972.46,514.2 C951.58,539.99 933.8654,562.6477 917.2654,585.6077 " fill="none" id="Curso-to-Profesor" style="stroke:#181818;stroke-width:1.0;stroke-dasharray:7.0,7.0;"/><polygon fill="#181818" points="913.75,590.47,922.2647,585.5202,916.6795,586.4181,915.7816,580.833,913.75,590.47" style="stroke:#181818;stroke-width:1.0;"/></g><!--reverse link Profesor to Curso--><g id="link_Profesor_Curso"><path codeLine="98" d="M944.4926,581.353 C964.1426,558.393 978.51,539.99 998.23,514.2 " fill="none" id="Profesor-backto-Curso" style="stroke:#181818;stroke-width:1.0;"/><polygon fill="none" points="936.69,590.47,943.6303,588.5124,944.4926,581.353,937.5523,583.3106,936.69,590.47" style="stroke:#181818;stroke-width:1.0;"/></g><!--reverse link Departamento to Curso--><g id="link_Departamento_Curso"><path codeLine="90" d="M990.6591,291.9445 C999.0791,310.2745 1003.76,320.45 1013.1,340.77 " fill="none" id="Departamento-backto-Curso" style="stroke:#181818;stroke-width:1.0;"/><polygon fill="none" points="985.65,281.04,984.5197,288.162,990.6591,291.9445,991.7894,284.8226,985.65,281.04" style="stroke:#181818;stroke-width:1.0;"/></g><!--link Estudiante to Persona--><g id="link_Estudiante_Persona"><path codeLine="91" d="M1542.33,281.19 C1640.78,372.97 1814.66,566.46 1717.5,714 C1701.6,738.15 1695.1388,747.8685 1670.9488,763.8485 " fill="none" id="Estudiante-to-Persona" style="stroke:#181818;stroke-width:1.0;"/><polygon fill="none" points="1655.93,773.77,1674.256,768.8548,1667.6416,758.8423,1655.93,773.77" style="stroke:#181818;stroke-width:1.0;"/></g><!--reverse link Estudiante to Matricula--><g id="link_Estudiante_Matricula"><path codeLine="92" d="M1471.868,293.3945 C1467.008,367.8145 1467.47,491.52 1471.7,573.85 " fill="none" id="Estudiante-backto-Matricula" style="stroke:#181818;stroke-width:1.0;"/><polygon fill="none" points="1472.65,281.42,1468.2675,287.1466,1471.868,293.3945,1476.2505,287.6679,1472.65,281.42" style="stroke:#181818;stroke-width:1.0;"/></g><!--reverse link Matricula to Estudiante--><g id="link_Matricula_Estudiante"><path codeLine="96" d="M1492.522,561.8677 C1497.002,479.5377 1496.02,355.84 1490.88,281.42 " fill="none" id="Matricula-backto-Estudiante" style="stroke:#181818;stroke-width:1.0;"/><polygon fill="#181818" points="1491.87,573.85,1496.1901,568.0762,1492.522,561.8677,1488.2019,567.6415,1491.87,573.85" style="stroke:#181818;stroke-width:1.0;"/></g><!--link Estudiante to Direccion--><g id="link_Estudiante_Direccion"><path codeLine="94" d="M1614.35,281.15 C1641.57,297 1667.86,316.79 1687.5,341 C1793.74,472.01 1771.28,545.89 1757.5,714 C1750.14,803.79 1781.95,844.61 1724.5,914 C1693.37,951.6 1654.1494,974.5913 1608.2894,991.2513 " fill="none" id="Estudiante-to-Direccion" style="stroke:#181818;stroke-width:1.0;stroke-dasharray:7.0,7.0;"/><polygon fill="#181818" points="1602.65,993.3,1612.4749,993.9866,1607.3495,991.5928,1609.7433,986.4674,1602.65,993.3" style="stroke:#181818;stroke-width:1.0;"/></g><!--link Profesor to Persona--><g id="link_Profesor_Persona"><path codeLine="97" d="M1025.2,697.54 C1088.39,720.97 1146.8025,742.633 1214.4525,767.713 " fill="none" id="Profesor-to-Persona" style="stroke:#181818;stroke-width:1.0;"/><polygon fill="none" points="1231.33,773.97,1216.5382,762.0871,1212.3668,773.3388,1231.33,773.97" style="stroke:#181818;stroke-width:1.0;"/></g><!--link Profesor to Direccion--><g id="link_Profesor_Direccion"><path codeLine="99" d="M915.71,697.64 C954.91,757.69 1026.39,855.14 1110.5,914 C1147.13,939.63 1184.6649,957.9992 1226.8449,974.1092 " fill="none" id="Profesor-to-Direccion" style="stroke:#181818;stroke-width:1.0;stroke-dasharray:7.0,7.0;"/><polygon fill="#181818" points="1232.45,976.25,1225.4695,969.3021,1227.7791,974.466,1222.6152,976.7756,1232.45,976.25" style="stroke:#181818;stroke-width:1.0;"/></g><!--SRC=[hLNBRjim4BphAtYKKodeMIW257MA1aY206u_O4rjv4KbqY2feEZZtqkA4X-MxLCkXZaaPsVsGUcV98wWO62y1wq_6wDeFnfyu5Biw3UoZyM1McIS5E-nA62lZG9k_77sWafB0UnFmLZT2chOpXA8pYs57FOAK-GL-G6UWTD0A8nis1OCJZVbG9nwSX0fv9oaS7XjVpxCCSg4lc8vUSNEKbVi7F76aNPexbjeoqt3I9ZYNr5uGpy4lTbuPFUygRMB5ct230mkZcxO8sdpQPjWTq5vGbRcF9C6w1HseDAxPMk59cihxqrI6_K55ruTXxxFn8bnG2MzARTFemsU7fY41POo8x1fZTShbb_UH15VHbkHMO1igPFNoyx7eto2NpH4NGUfG558tpU_d397GdD5HwSEb_qdi6Hyx27cTj9Gvk7NRN4Ikc979LzHIzMmb_bVMefPHtbesFntAO0zuuNjIMaiROXxRSQMG1YqPuB0f5996I-r4dSc5fEJesWmQulBtJFdeV55MVLBLEarA3oYeTObO2zbZp3DsR38lvBmoFHkarYnjPpDQQeJQsUo721lRmeUtnKX3Nmb0NrZuu_x7aFIPrAtnc0iBMhm7IAK2RdhhCXIiVCSanSxOUwsUbwqk3TdLXDipDqslwC4Enn0GDegRc8UX4sX3VeeBUbt6d3PiBmdw2HzQUSLOSNEqdau9ql6VfaOhr93xyXNcTLRuWRQIsszaBnZ4vqeyTEXgHDNfcFvSDtKTVB9ILz_wNQI6Ipyg-VWEQy94ZlJOxUtTsalHN2nNsJFWwFm_PZCQrt_lLi-i2cUnqis7F-AnO7HO1oNcn0onnBLeTwPae16qG7AWlq7]--></g></svg>